<svg width="131" height="39" viewBox="0 0 131 39" fill="none" xmlns="http://www.w3.org/2000/svg">
<path d="M27.726 13.7567V24.5645C27.726 25.0952 27.4591 25.5222 27.0352 25.7891L17.5588 31.2715C17.0783 31.5384 16.5477 31.5384 16.1206 31.2715L6.64734 25.8425C6.2203 25.5756 5.95654 25.0983 5.95654 24.6179V13.7599C5.95654 13.2292 6.22344 12.8022 6.64734 12.5353L16.1206 7.10626C16.6011 6.83936 17.1317 6.83936 17.5588 7.10626L27.0352 12.5353C27.4622 12.8022 27.726 13.2794 27.726 13.7599V13.7567Z" fill="#131A2A"/>
<path d="M33.6794 10.7894V13.5338H29.0416V13.1005C29.0416 12.5635 28.7433 12.0266 28.2661 11.7283L17.6435 5.64302C17.1663 5.34473 16.5697 5.34473 16.0327 5.64302L5.41332 11.7283C4.93604 12.0266 4.63775 12.5039 4.63775 13.1005V13.5338H0V10.7894C0 9.96363 0.411337 9.30738 1.07073 8.8929L15.7281 0.496603C16.4692 0.082126 17.2919 0.082126 17.9512 0.496603L32.6087 8.8929C33.2649 9.30738 33.6794 10.0484 33.6794 10.7894Z" fill="#A185FF"/>
<path d="M33.6794 18.2092V27.5035C33.6794 28.3262 33.2649 28.9856 32.6087 29.3969L17.9512 37.878C17.2102 38.2894 16.3844 38.2894 15.7281 37.878L1.07073 29.4786C0.411337 29.0673 0 28.3262 0 27.5852V18.2092H4.63775V25.2742C4.63775 25.8111 4.93604 26.348 5.41332 26.6463L16.0327 32.7316C16.51 33.0299 17.1066 33.0299 17.6435 32.7316L28.2661 26.5867C28.7433 26.2884 29.0416 25.8111 29.0416 25.2145V18.2092H33.6794Z" fill="#17E29F"/>
<path d="M3.10544 14.3722H1.52603C0.683226 14.3722 0 15.0554 0 15.8982C0 16.741 0.683226 17.4242 1.52603 17.4242H3.10544C3.94824 17.4242 4.63147 16.741 4.63147 15.8982C4.63147 15.0554 3.94824 14.3722 3.10544 14.3722Z" fill="#17E29F"/>
<path d="M32.1534 14.3722H30.574C29.7312 14.3722 29.048 15.0554 29.048 15.8982C29.048 16.741 29.7312 17.4242 30.574 17.4242H32.1534C32.9962 17.4242 33.6794 16.741 33.6794 15.8982C33.6794 15.0554 32.9962 14.3722 32.1534 14.3722Z" fill="#17E29F"/>
<path d="M46.2926 8.80813C45.7431 9.34821 45.0869 9.6151 44.327 9.6151C43.5671 9.6151 42.9203 9.34507 42.3802 8.80813C41.8401 8.27119 41.5732 7.62122 41.5732 6.86134C41.5732 6.10147 41.8433 5.48917 42.3802 4.95224C42.9172 4.4153 43.5671 4.14526 44.327 4.14526C45.0869 4.14526 45.74 4.4153 46.2926 4.95224C46.8421 5.49231 47.1184 6.12659 47.1184 6.86134C47.1184 7.5961 46.8421 8.26805 46.2926 8.80813Z" fill="Black"/>
<path d="M46.3868 12.259H42.2734V30.1788H46.3868V12.259Z" fill="black"/>
<path d="M61.6251 30.1788L57.5839 24.4955L57.4363 24.486L53.4015 30.1788H48.8485L55.1818 21.1137L48.883 12.259H53.6558L57.5745 17.8513L57.452 17.8607L61.3676 12.259H66.1058L59.8447 21.0886L66.2157 30.1788H61.6251Z" fill="Black"/>
<path d="M83.291 20.9975C83.291 21.4371 83.2533 21.9898 83.1811 22.6491H70.1093C70.3794 23.9208 70.9665 24.9194 71.8709 25.6415C72.7752 26.3637 73.8899 26.7248 75.2118 26.7248C77.0707 26.7248 78.5653 26.0278 79.6925 24.6305L82.5562 27.0891C80.8167 29.3404 78.2953 30.4677 74.992 30.4677C72.3481 30.4677 70.1627 29.6168 68.4357 27.9149C66.7087 26.213 65.8484 23.9805 65.8484 21.2142C65.8484 18.4479 66.6742 16.2813 68.3258 14.5668C69.9775 12.8524 72.0655 11.9952 74.5869 11.9952C77.1083 11.9952 79.3095 12.8336 80.9014 14.5103C82.4934 16.1871 83.2878 18.3474 83.2878 20.9912L83.291 20.9975ZM77.6359 16.6832C76.9011 16.0364 75.9591 15.7098 74.8099 15.7098C73.6606 15.7098 72.6747 16.0269 71.8552 16.6644C71.0356 17.3018 70.4767 18.1935 70.1847 19.3459H79.1462C78.8762 18.2218 78.3738 17.3332 77.6421 16.6832H77.6359Z" fill="Black"/>
<path d="M95.81 12.0015H96.325V16.5921C95.6875 16.5419 95.2731 16.5199 95.0753 16.5199C93.5586 16.5199 92.3623 17.0035 91.4957 17.9706C90.6259 18.9377 90.1926 20.1811 90.1926 21.6977V30.1788H86.0792V12.259H90.1926V14.975H90.2303C91.6747 12.9906 93.5367 12.0015 95.8132 12.0015H95.81Z" fill="Black"/>
<path d="M98.052 30.4708C97.267 30.4708 96.6076 30.2071 96.0706 29.6827C95.5306 29.1583 95.2637 28.5146 95.2637 27.7548C95.2637 26.9949 95.54 26.348 96.0895 25.808C96.639 25.271 97.2952 25.001 98.0551 25.001C98.815 25.001 99.4618 25.271 100.002 25.808C100.539 26.348 100.809 26.9949 100.809 27.7548C100.809 28.5146 100.539 29.1552 100.002 29.6827C99.4618 30.2102 98.815 30.4708 98.0551 30.4708H98.052Z" fill="#17E29F"/>
<path d="M117.366 12.259H121.479V30.1788H117.551V27.7924H117.479C116.157 29.5791 114.261 30.474 111.786 30.474C109.312 30.474 107.189 29.6293 105.563 27.94C103.933 26.2507 103.12 24.037 103.12 21.2927C103.12 18.5483 103.939 16.3786 105.578 14.6265C107.218 12.8775 109.274 12.0015 111.749 12.0015C114.223 12.0015 115.947 12.8085 117.294 14.4255H117.366V12.259ZM112.446 26.728C113.865 26.728 115.071 26.2256 116.063 25.2239C117.055 24.2191 117.551 22.9223 117.551 21.3304C117.551 19.7384 117.068 18.4039 116.101 17.3269C115.133 16.2499 113.915 15.7098 112.446 15.7098C110.976 15.7098 109.752 16.2247 108.775 17.2515C107.795 18.2783 107.305 19.6379 107.305 21.3272C107.305 22.9192 107.783 24.216 108.737 25.2208C109.692 26.2256 110.929 26.7248 112.446 26.7248V26.728Z" fill="#A185FF"/>
<path d="M129.464 8.80813C128.915 9.34821 128.259 9.6151 127.499 9.6151C126.739 9.6151 126.092 9.34507 125.552 8.80813C125.012 8.27119 124.745 7.62122 124.745 6.86134C124.745 6.10147 125.015 5.48917 125.552 4.95224C126.089 4.4153 126.739 4.14526 127.499 4.14526C128.259 4.14526 128.912 4.4153 129.464 4.95224C130.014 5.49231 130.29 6.12659 130.29 6.86134C130.29 7.5961 130.014 8.26805 129.464 8.80813Z" fill="#A185FF"/>
<path d="M129.556 12.259H125.442V30.1788H129.556V12.259Z" fill="#A185FF"/>
<path d="M14.4752 18.2657C14.4752 16.9374 13.3984 15.8605 12.07 15.8605C10.7416 15.8605 9.66479 16.9374 9.66479 18.2657V20.1089C9.66479 21.4373 10.7416 22.5141 12.07 22.5141C13.3984 22.5141 14.4752 21.4373 14.4752 20.1089V18.2657Z" fill="White"/>
<path d="M24.0145 18.2657C24.0145 16.9374 22.9377 15.8605 21.6093 15.8605C20.281 15.8605 19.2041 16.9374 19.2041 18.2657V20.1089C19.2041 21.4373 20.281 22.5141 21.6093 22.5141C22.9377 22.5141 24.0145 21.4373 24.0145 20.1089V18.2657Z" fill="White"/>
</svg>
